<?xml version="1.0" encoding="UTF-8"?>
<svg xmlns="http://www.w3.org/2000/svg" xmlns:xlink="http://www.w3.org/1999/xlink" width="1210pt" height="300pt" viewBox="0 0 1210 300" version="1.1">
<g id="surface1">
<path style=" stroke:none;fill-rule:nonzero;fill:rgb(0.392157%,12.156863%,14.901961%);fill-opacity:1;" d="M 0 0 L 0 10 C 0 4.476562 4.476562 0 10 0 L 1200 0 C 1205.523438 0 1210 4.476562 1210 10 L 1210 290 C 1210 295.523438 1205.523438 300 1200 300 L 10 300 C 4.476562 300 0 295.523438 0 290 Z M 0 0 "/>
<path style=" stroke:none;fill-rule:nonzero;fill:rgb(94.901961%,62.745098%,2.745098%);fill-opacity:1;" d="M 10 10 L 10 13 C 10 11.34375 11.34375 10 13 10 L 37 10 C 38.65625 10 40 11.34375 40 13 L 40 37 C 40 38.65625 38.65625 40 37 40 L 13 40 C 11.34375 40 10 38.65625 10 37 Z M 10 10 "/>
<path style=" stroke:none;fill-rule:nonzero;fill:rgb(94.901961%,62.745098%,2.745098%);fill-opacity:1;" d="M 45 10 L 45 13 C 45 11.34375 46.34375 10 48 10 L 72 10 C 73.65625 10 75 11.34375 75 13 L 75 37 C 75 38.65625 73.65625 40 72 40 L 48 40 C 46.34375 40 45 38.65625 45 37 Z M 45 10 "/>
<path style=" stroke:none;fill-rule:nonzero;fill:rgb(94.901961%,62.745098%,2.745098%);fill-opacity:1;" d="M 80 10 L 80 13 C 80 11.34375 81.34375 10 83 10 L 107 10 C 108.65625 10 110 11.34375 110 13 L 110 37 C 110 38.65625 108.65625 40 107 40 L 83 40 C 81.34375 40 80 38.65625 80 37 Z M 80 10 "/>
<path style=" stroke:none;fill-rule:nonzero;fill:rgb(94.901961%,62.745098%,2.745098%);fill-opacity:1;" d="M 220 10 L 220 13 C 220 11.34375 221.34375 10 223 10 L 247 10 C 248.65625 10 250 11.34375 250 13 L 250 37 C 250 38.65625 248.65625 40 247 40 L 223 40 C 221.34375 40 220 38.65625 220 37 Z M 220 10 "/>
<path style=" stroke:none;fill-rule:nonzero;fill:rgb(94.901961%,62.745098%,2.745098%);fill-opacity:1;" d="M 255 10 L 255 13 C 255 11.34375 256.34375 10 258 10 L 282 10 C 283.65625 10 285 11.34375 285 13 L 285 37 C 285 38.65625 283.65625 40 282 40 L 258 40 C 256.34375 40 255 38.65625 255 37 Z M 255 10 "/>
<path style=" stroke:none;fill-rule:nonzero;fill:rgb(94.901961%,62.745098%,2.745098%);fill-opacity:1;" d="M 290 10 L 290 13 C 290 11.34375 291.34375 10 293 10 L 317 10 C 318.65625 10 320 11.34375 320 13 L 320 37 C 320 38.65625 318.65625 40 317 40 L 293 40 C 291.34375 40 290 38.65625 290 37 Z M 290 10 "/>
<path style=" stroke:none;fill-rule:nonzero;fill:rgb(94.901961%,62.745098%,2.745098%);fill-opacity:1;" d="M 360 10 L 360 13 C 360 11.34375 361.34375 10 363 10 L 387 10 C 388.65625 10 390 11.34375 390 13 L 390 37 C 390 38.65625 388.65625 40 387 40 L 363 40 C 361.34375 40 360 38.65625 360 37 Z M 360 10 "/>
<path style=" stroke:none;fill-rule:nonzero;fill:rgb(94.901961%,62.745098%,2.745098%);fill-opacity:1;" d="M 395 10 L 395 13 C 395 11.34375 396.34375 10 398 10 L 422 10 C 423.65625 10 425 11.34375 425 13 L 425 37 C 425 38.65625 423.65625 40 422 40 L 398 40 C 396.34375 40 395 38.65625 395 37 Z M 395 10 "/>
<path style=" stroke:none;fill-rule:nonzero;fill:rgb(94.901961%,62.745098%,2.745098%);fill-opacity:1;" d="M 570 10 L 570 13 C 570 11.34375 571.34375 10 573 10 L 597 10 C 598.65625 10 600 11.34375 600 13 L 600 37 C 600 38.65625 598.65625 40 597 40 L 573 40 C 571.34375 40 570 38.65625 570 37 Z M 570 10 "/>
<path style=" stroke:none;fill-rule:nonzero;fill:rgb(94.901961%,62.745098%,2.745098%);fill-opacity:1;" d="M 605 10 L 605 13 C 605 11.34375 606.34375 10 608 10 L 632 10 C 633.65625 10 635 11.34375 635 13 L 635 37 C 635 38.65625 633.65625 40 632 40 L 608 40 C 606.34375 40 605 38.65625 605 37 Z M 605 10 "/>
<path style=" stroke:none;fill-rule:nonzero;fill:rgb(94.901961%,62.745098%,2.745098%);fill-opacity:1;" d="M 710 10 L 710 13 C 710 11.34375 711.34375 10 713 10 L 737 10 C 738.65625 10 740 11.34375 740 13 L 740 37 C 740 38.65625 738.65625 40 737 40 L 713 40 C 711.34375 40 710 38.65625 710 37 Z M 710 10 "/>
<path style=" stroke:none;fill-rule:nonzero;fill:rgb(94.901961%,62.745098%,2.745098%);fill-opacity:1;" d="M 745 10 L 745 13 C 745 11.34375 746.34375 10 748 10 L 772 10 C 773.65625 10 775 11.34375 775 13 L 775 37 C 775 38.65625 773.65625 40 772 40 L 748 40 C 746.34375 40 745 38.65625 745 37 Z M 745 10 "/>
<path style=" stroke:none;fill-rule:nonzero;fill:rgb(94.901961%,62.745098%,2.745098%);fill-opacity:1;" d="M 780 10 L 780 13 C 780 11.34375 781.34375 10 783 10 L 807 10 C 808.65625 10 810 11.34375 810 13 L 810 37 C 810 38.65625 808.65625 40 807 40 L 783 40 C 781.34375 40 780 38.65625 780 37 Z M 780 10 "/>
<path style=" stroke:none;fill-rule:nonzero;fill:rgb(94.901961%,62.745098%,2.745098%);fill-opacity:1;" d="M 815 10 L 815 13 C 815 11.34375 816.34375 10 818 10 L 842 10 C 843.65625 10 845 11.34375 845 13 L 845 37 C 845 38.65625 843.65625 40 842 40 L 818 40 C 816.34375 40 815 38.65625 815 37 Z M 815 10 "/>
<path style=" stroke:none;fill-rule:nonzero;fill:rgb(94.901961%,62.745098%,2.745098%);fill-opacity:1;" d="M 850 10 L 850 13 C 850 11.34375 851.34375 10 853 10 L 877 10 C 878.65625 10 880 11.34375 880 13 L 880 37 C 880 38.65625 878.65625 40 877 40 L 853 40 C 851.34375 40 850 38.65625 850 37 Z M 850 10 "/>
<path style=" stroke:none;fill-rule:nonzero;fill:rgb(94.901961%,79.607843%,1.960784%);fill-opacity:1;" d="M 920 10 L 920 13 C 920 11.34375 921.34375 10 923 10 L 947 10 C 948.65625 10 950 11.34375 950 13 L 950 37 C 950 38.65625 948.65625 40 947 40 L 923 40 C 921.34375 40 920 38.65625 920 37 Z M 920 10 "/>
<path style=" stroke:none;fill-rule:nonzero;fill:rgb(94.901961%,62.745098%,2.745098%);fill-opacity:1;" d="M 955 10 L 955 13 C 955 11.34375 956.34375 10 958 10 L 982 10 C 983.65625 10 985 11.34375 985 13 L 985 37 C 985 38.65625 983.65625 40 982 40 L 958 40 C 956.34375 40 955 38.65625 955 37 Z M 955 10 "/>
<path style=" stroke:none;fill-rule:nonzero;fill:rgb(94.901961%,62.745098%,2.745098%);fill-opacity:1;" d="M 1060 10 L 1060 13 C 1060 11.34375 1061.34375 10 1063 10 L 1087 10 C 1088.65625 10 1090 11.34375 1090 13 L 1090 37 C 1090 38.65625 1088.65625 40 1087 40 L 1063 40 C 1061.34375 40 1060 38.65625 1060 37 Z M 1060 10 "/>
<path style=" stroke:none;fill-rule:nonzero;fill:rgb(94.901961%,62.745098%,2.745098%);fill-opacity:1;" d="M 1095 10 L 1095 13 C 1095 11.34375 1096.34375 10 1098 10 L 1122 10 C 1123.65625 10 1125 11.34375 1125 13 L 1125 37 C 1125 38.65625 1123.65625 40 1122 40 L 1098 40 C 1096.34375 40 1095 38.65625 1095 37 Z M 1095 10 "/>
<path style=" stroke:none;fill-rule:nonzero;fill:rgb(94.901961%,62.745098%,2.745098%);fill-opacity:1;" d="M 1130 10 L 1130 13 C 1130 11.34375 1131.34375 10 1133 10 L 1157 10 C 1158.65625 10 1160 11.34375 1160 13 L 1160 37 C 1160 38.65625 1158.65625 40 1157 40 L 1133 40 C 1131.34375 40 1130 38.65625 1130 37 Z M 1130 10 "/>
<path style=" stroke:none;fill-rule:nonzero;fill:rgb(94.901961%,62.745098%,2.745098%);fill-opacity:1;" d="M 1165 10 L 1165 13 C 1165 11.34375 1166.34375 10 1168 10 L 1192 10 C 1193.65625 10 1195 11.34375 1195 13 L 1195 37 C 1195 38.65625 1193.65625 40 1192 40 L 1168 40 C 1166.34375 40 1165 38.65625 1165 37 Z M 1165 10 "/>
<path style=" stroke:none;fill-rule:nonzero;fill:rgb(94.901961%,62.745098%,2.745098%);fill-opacity:1;" d="M 10 45 L 10 48 C 10 46.34375 11.34375 45 13 45 L 37 45 C 38.65625 45 40 46.34375 40 48 L 40 72 C 40 73.65625 38.65625 75 37 75 L 13 75 C 11.34375 75 10 73.65625 10 72 Z M 10 45 "/>
<path style=" stroke:none;fill-rule:nonzero;fill:rgb(94.901961%,62.745098%,2.745098%);fill-opacity:1;" d="M 45 45 L 45 48 C 45 46.34375 46.34375 45 48 45 L 72 45 C 73.65625 45 75 46.34375 75 48 L 75 72 C 75 73.65625 73.65625 75 72 75 L 48 75 C 46.34375 75 45 73.65625 45 72 Z M 45 45 "/>
<path style=" stroke:none;fill-rule:nonzero;fill:rgb(94.901961%,62.745098%,2.745098%);fill-opacity:1;" d="M 80 45 L 80 48 C 80 46.34375 81.34375 45 83 45 L 107 45 C 108.65625 45 110 46.34375 110 48 L 110 72 C 110 73.65625 108.65625 75 107 75 L 83 75 C 81.34375 75 80 73.65625 80 72 Z M 80 45 "/>
<path style=" stroke:none;fill-rule:nonzero;fill:rgb(94.901961%,62.745098%,2.745098%);fill-opacity:1;" d="M 220 45 L 220 48 C 220 46.34375 221.34375 45 223 45 L 247 45 C 248.65625 45 250 46.34375 250 48 L 250 72 C 250 73.65625 248.65625 75 247 75 L 223 75 C 221.34375 75 220 73.65625 220 72 Z M 220 45 "/>
<path style=" stroke:none;fill-rule:nonzero;fill:rgb(94.901961%,62.745098%,2.745098%);fill-opacity:1;" d="M 255 45 L 255 48 C 255 46.34375 256.34375 45 258 45 L 282 45 C 283.65625 45 285 46.34375 285 48 L 285 72 C 285 73.65625 283.65625 75 282 75 L 258 75 C 256.34375 75 255 73.65625 255 72 Z M 255 45 "/>
<path style=" stroke:none;fill-rule:nonzero;fill:rgb(94.901961%,62.745098%,2.745098%);fill-opacity:1;" d="M 290 45 L 290 48 C 290 46.34375 291.34375 45 293 45 L 317 45 C 318.65625 45 320 46.34375 320 48 L 320 72 C 320 73.65625 318.65625 75 317 75 L 293 75 C 291.34375 75 290 73.65625 290 72 Z M 290 45 "/>
<path style=" stroke:none;fill-rule:nonzero;fill:rgb(94.901961%,62.745098%,2.745098%);fill-opacity:1;" d="M 360 45 L 360 48 C 360 46.34375 361.34375 45 363 45 L 387 45 C 388.65625 45 390 46.34375 390 48 L 390 72 C 390 73.65625 388.65625 75 387 75 L 363 75 C 361.34375 75 360 73.65625 360 72 Z M 360 45 "/>
<path style=" stroke:none;fill-rule:nonzero;fill:rgb(94.901961%,62.745098%,2.745098%);fill-opacity:1;" d="M 395 45 L 395 48 C 395 46.34375 396.34375 45 398 45 L 422 45 C 423.65625 45 425 46.34375 425 48 L 425 72 C 425 73.65625 423.65625 75 422 75 L 398 75 C 396.34375 75 395 73.65625 395 72 Z M 395 45 "/>
<path style=" stroke:none;fill-rule:nonzero;fill:rgb(94.901961%,62.745098%,2.745098%);fill-opacity:1;" d="M 570 45 L 570 48 C 570 46.34375 571.34375 45 573 45 L 597 45 C 598.65625 45 600 46.34375 600 48 L 600 72 C 600 73.65625 598.65625 75 597 75 L 573 75 C 571.34375 75 570 73.65625 570 72 Z M 570 45 "/>
<path style=" stroke:none;fill-rule:nonzero;fill:rgb(94.901961%,62.745098%,2.745098%);fill-opacity:1;" d="M 605 45 L 605 48 C 605 46.34375 606.34375 45 608 45 L 632 45 C 633.65625 45 635 46.34375 635 48 L 635 72 C 635 73.65625 633.65625 75 632 75 L 608 75 C 606.34375 75 605 73.65625 605 72 Z M 605 45 "/>
<path style=" stroke:none;fill-rule:nonzero;fill:rgb(94.901961%,62.745098%,2.745098%);fill-opacity:1;" d="M 675 45 L 675 48 C 675 46.34375 676.34375 45 678 45 L 702 45 C 703.65625 45 705 46.34375 705 48 L 705 72 C 705 73.65625 703.65625 75 702 75 L 678 75 C 676.34375 75 675 73.65625 675 72 Z M 675 45 "/>
<path style=" stroke:none;fill-rule:nonzero;fill:rgb(94.901961%,62.745098%,2.745098%);fill-opacity:1;" d="M 710 45 L 710 48 C 710 46.34375 711.34375 45 713 45 L 737 45 C 738.65625 45 740 46.34375 740 48 L 740 72 C 740 73.65625 738.65625 75 737 75 L 713 75 C 711.34375 75 710 73.65625 710 72 Z M 710 45 "/>
<path style=" stroke:none;fill-rule:nonzero;fill:rgb(94.901961%,62.745098%,2.745098%);fill-opacity:1;" d="M 745 45 L 745 48 C 745 46.34375 746.34375 45 748 45 L 772 45 C 773.65625 45 775 46.34375 775 48 L 775 72 C 775 73.65625 773.65625 75 772 75 L 748 75 C 746.34375 75 745 73.65625 745 72 Z M 745 45 "/>
<path style=" stroke:none;fill-rule:nonzero;fill:rgb(94.901961%,62.745098%,2.745098%);fill-opacity:1;" d="M 780 45 L 780 48 C 780 46.34375 781.34375 45 783 45 L 807 45 C 808.65625 45 810 46.34375 810 48 L 810 72 C 810 73.65625 808.65625 75 807 75 L 783 75 C 781.34375 75 780 73.65625 780 72 Z M 780 45 "/>
<path style=" stroke:none;fill-rule:nonzero;fill:rgb(94.901961%,62.745098%,2.745098%);fill-opacity:1;" d="M 815 45 L 815 48 C 815 46.34375 816.34375 45 818 45 L 842 45 C 843.65625 45 845 46.34375 845 48 L 845 72 C 845 73.65625 843.65625 75 842 75 L 818 75 C 816.34375 75 815 73.65625 815 72 Z M 815 45 "/>
<path style=" stroke:none;fill-rule:nonzero;fill:rgb(94.901961%,62.745098%,2.745098%);fill-opacity:1;" d="M 850 45 L 850 48 C 850 46.34375 851.34375 45 853 45 L 877 45 C 878.65625 45 880 46.34375 880 48 L 880 72 C 880 73.65625 878.65625 75 877 75 L 853 75 C 851.34375 75 850 73.65625 850 72 Z M 850 45 "/>
<path style=" stroke:none;fill-rule:nonzero;fill:rgb(1.568627%,74.901961%,74.901961%);fill-opacity:1;" d="M 920 45 L 920 48 C 920 46.34375 921.34375 45 923 45 L 947 45 C 948.65625 45 950 46.34375 950 48 L 950 72 C 950 73.65625 948.65625 75 947 75 L 923 75 C 921.34375 75 920 73.65625 920 72 Z M 920 45 "/>
<path style=" stroke:none;fill-rule:nonzero;fill:rgb(0.784314%,40.784314%,45.098039%);fill-opacity:1;" d="M 955 45 L 955 48 C 955 46.34375 956.34375 45 958 45 L 982 45 C 983.65625 45 985 46.34375 985 48 L 985 72 C 985 73.65625 983.65625 75 982 75 L 958 75 C 956.34375 75 955 73.65625 955 72 Z M 955 45 "/>
<path style=" stroke:none;fill-rule:nonzero;fill:rgb(94.901961%,62.745098%,2.745098%);fill-opacity:1;" d="M 1025 45 L 1025 48 C 1025 46.34375 1026.34375 45 1028 45 L 1052 45 C 1053.65625 45 1055 46.34375 1055 48 L 1055 72 C 1055 73.65625 1053.65625 75 1052 75 L 1028 75 C 1026.34375 75 1025 73.65625 1025 72 Z M 1025 45 "/>
<path style=" stroke:none;fill-rule:nonzero;fill:rgb(94.901961%,62.745098%,2.745098%);fill-opacity:1;" d="M 1060 45 L 1060 48 C 1060 46.34375 1061.34375 45 1063 45 L 1087 45 C 1088.65625 45 1090 46.34375 1090 48 L 1090 72 C 1090 73.65625 1088.65625 75 1087 75 L 1063 75 C 1061.34375 75 1060 73.65625 1060 72 Z M 1060 45 "/>
<path style=" stroke:none;fill-rule:nonzero;fill:rgb(94.901961%,62.745098%,2.745098%);fill-opacity:1;" d="M 1095 45 L 1095 48 C 1095 46.34375 1096.34375 45 1098 45 L 1122 45 C 1123.65625 45 1125 46.34375 1125 48 L 1125 72 C 1125 73.65625 1123.65625 75 1122 75 L 1098 75 C 1096.34375 75 1095 73.65625 1095 72 Z M 1095 45 "/>
<path style=" stroke:none;fill-rule:nonzero;fill:rgb(94.901961%,62.745098%,2.745098%);fill-opacity:1;" d="M 1130 45 L 1130 48 C 1130 46.34375 1131.34375 45 1133 45 L 1157 45 C 1158.65625 45 1160 46.34375 1160 48 L 1160 72 C 1160 73.65625 1158.65625 75 1157 75 L 1133 75 C 1131.34375 75 1130 73.65625 1130 72 Z M 1130 45 "/>
<path style=" stroke:none;fill-rule:nonzero;fill:rgb(94.901961%,62.745098%,2.745098%);fill-opacity:1;" d="M 1165 45 L 1165 48 C 1165 46.34375 1166.34375 45 1168 45 L 1192 45 C 1193.65625 45 1195 46.34375 1195 48 L 1195 72 C 1195 73.65625 1193.65625 75 1192 75 L 1168 75 C 1166.34375 75 1165 73.65625 1165 72 Z M 1165 45 "/>
<path style=" stroke:none;fill-rule:nonzero;fill:rgb(94.901961%,79.607843%,1.960784%);fill-opacity:1;" d="M 10 80 L 10 83 C 10 81.34375 11.34375 80 13 80 L 37 80 C 38.65625 80 40 81.34375 40 83 L 40 107 C 40 108.65625 38.65625 110 37 110 L 13 110 C 11.34375 110 10 108.65625 10 107 Z M 10 80 "/>
<path style=" stroke:none;fill-rule:nonzero;fill:rgb(94.901961%,79.607843%,1.960784%);fill-opacity:1;" d="M 45 80 L 45 83 C 45 81.34375 46.34375 80 48 80 L 72 80 C 73.65625 80 75 81.34375 75 83 L 75 107 C 75 108.65625 73.65625 110 72 110 L 48 110 C 46.34375 110 45 108.65625 45 107 Z M 45 80 "/>
<path style=" stroke:none;fill-rule:nonzero;fill:rgb(94.901961%,79.607843%,1.960784%);fill-opacity:1;" d="M 80 80 L 80 83 C 80 81.34375 81.34375 80 83 80 L 107 80 C 108.65625 80 110 81.34375 110 83 L 110 107 C 110 108.65625 108.65625 110 107 110 L 83 110 C 81.34375 110 80 108.65625 80 107 Z M 80 80 "/>
<path style=" stroke:none;fill-rule:nonzero;fill:rgb(94.901961%,79.607843%,1.960784%);fill-opacity:1;" d="M 115 80 L 115 83 C 115 81.34375 116.34375 80 118 80 L 142 80 C 143.65625 80 145 81.34375 145 83 L 145 107 C 145 108.65625 143.65625 110 142 110 L 118 110 C 116.34375 110 115 108.65625 115 107 Z M 115 80 "/>
<path style=" stroke:none;fill-rule:nonzero;fill:rgb(94.901961%,79.607843%,1.960784%);fill-opacity:1;" d="M 185 80 L 185 83 C 185 81.34375 186.34375 80 188 80 L 212 80 C 213.65625 80 215 81.34375 215 83 L 215 107 C 215 108.65625 213.65625 110 212 110 L 188 110 C 186.34375 110 185 108.65625 185 107 Z M 185 80 "/>
<path style=" stroke:none;fill-rule:nonzero;fill:rgb(94.901961%,79.607843%,1.960784%);fill-opacity:1;" d="M 220 80 L 220 83 C 220 81.34375 221.34375 80 223 80 L 247 80 C 248.65625 80 250 81.34375 250 83 L 250 107 C 250 108.65625 248.65625 110 247 110 L 223 110 C 221.34375 110 220 108.65625 220 107 Z M 220 80 "/>
<path style=" stroke:none;fill-rule:nonzero;fill:rgb(94.901961%,79.607843%,1.960784%);fill-opacity:1;" d="M 255 80 L 255 83 C 255 81.34375 256.34375 80 258 80 L 282 80 C 283.65625 80 285 81.34375 285 83 L 285 107 C 285 108.65625 283.65625 110 282 110 L 258 110 C 256.34375 110 255 108.65625 255 107 Z M 255 80 "/>
<path style=" stroke:none;fill-rule:nonzero;fill:rgb(94.901961%,79.607843%,1.960784%);fill-opacity:1;" d="M 290 80 L 290 83 C 290 81.34375 291.34375 80 293 80 L 317 80 C 318.65625 80 320 81.34375 320 83 L 320 107 C 320 108.65625 318.65625 110 317 110 L 293 110 C 291.34375 110 290 108.65625 290 107 Z M 290 80 "/>
<path style=" stroke:none;fill-rule:nonzero;fill:rgb(94.901961%,79.607843%,1.960784%);fill-opacity:1;" d="M 360 80 L 360 83 C 360 81.34375 361.34375 80 363 80 L 387 80 C 388.65625 80 390 81.34375 390 83 L 390 107 C 390 108.65625 388.65625 110 387 110 L 363 110 C 361.34375 110 360 108.65625 360 107 Z M 360 80 "/>
<path style=" stroke:none;fill-rule:nonzero;fill:rgb(94.901961%,79.607843%,1.960784%);fill-opacity:1;" d="M 395 80 L 395 83 C 395 81.34375 396.34375 80 398 80 L 422 80 C 423.65625 80 425 81.34375 425 83 L 425 107 C 425 108.65625 423.65625 110 422 110 L 398 110 C 396.34375 110 395 108.65625 395 107 Z M 395 80 "/>
<path style=" stroke:none;fill-rule:nonzero;fill:rgb(94.901961%,79.607843%,1.960784%);fill-opacity:1;" d="M 570 80 L 570 83 C 570 81.34375 571.34375 80 573 80 L 597 80 C 598.65625 80 600 81.34375 600 83 L 600 107 C 600 108.65625 598.65625 110 597 110 L 573 110 C 571.34375 110 570 108.65625 570 107 Z M 570 80 "/>
<path style=" stroke:none;fill-rule:nonzero;fill:rgb(94.901961%,79.607843%,1.960784%);fill-opacity:1;" d="M 605 80 L 605 83 C 605 81.34375 606.34375 80 608 80 L 632 80 C 633.65625 80 635 81.34375 635 83 L 635 107 C 635 108.65625 633.65625 110 632 110 L 608 110 C 606.34375 110 605 108.65625 605 107 Z M 605 80 "/>
<path style=" stroke:none;fill-rule:nonzero;fill:rgb(94.901961%,79.607843%,1.960784%);fill-opacity:1;" d="M 675 80 L 675 83 C 675 81.34375 676.34375 80 678 80 L 702 80 C 703.65625 80 705 81.34375 705 83 L 705 107 C 705 108.65625 703.65625 110 702 110 L 678 110 C 676.34375 110 675 108.65625 675 107 Z M 675 80 "/>
<path style=" stroke:none;fill-rule:nonzero;fill:rgb(94.901961%,79.607843%,1.960784%);fill-opacity:1;" d="M 710 80 L 710 83 C 710 81.34375 711.34375 80 713 80 L 737 80 C 738.65625 80 740 81.34375 740 83 L 740 107 C 740 108.65625 738.65625 110 737 110 L 713 110 C 711.34375 110 710 108.65625 710 107 Z M 710 80 "/>
<path style=" stroke:none;fill-rule:nonzero;fill:rgb(94.901961%,79.607843%,1.960784%);fill-opacity:1;" d="M 1025 80 L 1025 83 C 1025 81.34375 1026.34375 80 1028 80 L 1052 80 C 1053.65625 80 1055 81.34375 1055 83 L 1055 107 C 1055 108.65625 1053.65625 110 1052 110 L 1028 110 C 1026.34375 110 1025 108.65625 1025 107 Z M 1025 80 "/>
<path style=" stroke:none;fill-rule:nonzero;fill:rgb(94.901961%,79.607843%,1.960784%);fill-opacity:1;" d="M 1060 80 L 1060 83 C 1060 81.34375 1061.34375 80 1063 80 L 1087 80 C 1088.65625 80 1090 81.34375 1090 83 L 1090 107 C 1090 108.65625 1088.65625 110 1087 110 L 1063 110 C 1061.34375 110 1060 108.65625 1060 107 Z M 1060 80 "/>
<path style=" stroke:none;fill-rule:nonzero;fill:rgb(94.901961%,79.607843%,1.960784%);fill-opacity:1;" d="M 10 115 L 10 118 C 10 116.34375 11.34375 115 13 115 L 37 115 C 38.65625 115 40 116.34375 40 118 L 40 142 C 40 143.65625 38.65625 145 37 145 L 13 145 C 11.34375 145 10 143.65625 10 142 Z M 10 115 "/>
<path style=" stroke:none;fill-rule:nonzero;fill:rgb(94.901961%,79.607843%,1.960784%);fill-opacity:1;" d="M 45 115 L 45 118 C 45 116.34375 46.34375 115 48 115 L 72 115 C 73.65625 115 75 116.34375 75 118 L 75 142 C 75 143.65625 73.65625 145 72 145 L 48 145 C 46.34375 145 45 143.65625 45 142 Z M 45 115 "/>
<path style=" stroke:none;fill-rule:nonzero;fill:rgb(94.901961%,79.607843%,1.960784%);fill-opacity:1;" d="M 115 115 L 115 118 C 115 116.34375 116.34375 115 118 115 L 142 115 C 143.65625 115 145 116.34375 145 118 L 145 142 C 145 143.65625 143.65625 145 142 145 L 118 145 C 116.34375 145 115 143.65625 115 142 Z M 115 115 "/>
<path style=" stroke:none;fill-rule:nonzero;fill:rgb(94.901961%,79.607843%,1.960784%);fill-opacity:1;" d="M 150 115 L 150 118 C 150 116.34375 151.34375 115 153 115 L 177 115 C 178.65625 115 180 116.34375 180 118 L 180 142 C 180 143.65625 178.65625 145 177 145 L 153 145 C 151.34375 145 150 143.65625 150 142 Z M 150 115 "/>
<path style=" stroke:none;fill-rule:nonzero;fill:rgb(94.901961%,79.607843%,1.960784%);fill-opacity:1;" d="M 185 115 L 185 118 C 185 116.34375 186.34375 115 188 115 L 212 115 C 213.65625 115 215 116.34375 215 118 L 215 142 C 215 143.65625 213.65625 145 212 145 L 188 145 C 186.34375 145 185 143.65625 185 142 Z M 185 115 "/>
<path style=" stroke:none;fill-rule:nonzero;fill:rgb(94.901961%,79.607843%,1.960784%);fill-opacity:1;" d="M 255 115 L 255 118 C 255 116.34375 256.34375 115 258 115 L 282 115 C 283.65625 115 285 116.34375 285 118 L 285 142 C 285 143.65625 283.65625 145 282 145 L 258 145 C 256.34375 145 255 143.65625 255 142 Z M 255 115 "/>
<path style=" stroke:none;fill-rule:nonzero;fill:rgb(94.901961%,79.607843%,1.960784%);fill-opacity:1;" d="M 290 115 L 290 118 C 290 116.34375 291.34375 115 293 115 L 317 115 C 318.65625 115 320 116.34375 320 118 L 320 142 C 320 143.65625 318.65625 145 317 145 L 293 145 C 291.34375 145 290 143.65625 290 142 Z M 290 115 "/>
<path style=" stroke:none;fill-rule:nonzero;fill:rgb(94.901961%,79.607843%,1.960784%);fill-opacity:1;" d="M 360 115 L 360 118 C 360 116.34375 361.34375 115 363 115 L 387 115 C 388.65625 115 390 116.34375 390 118 L 390 142 C 390 143.65625 388.65625 145 387 145 L 363 145 C 361.34375 145 360 143.65625 360 142 Z M 360 115 "/>
<path style=" stroke:none;fill-rule:nonzero;fill:rgb(94.901961%,79.607843%,1.960784%);fill-opacity:1;" d="M 395 115 L 395 118 C 395 116.34375 396.34375 115 398 115 L 422 115 C 423.65625 115 425 116.34375 425 118 L 425 142 C 425 143.65625 423.65625 145 422 145 L 398 145 C 396.34375 145 395 143.65625 395 142 Z M 395 115 "/>
<path style=" stroke:none;fill-rule:nonzero;fill:rgb(94.901961%,79.607843%,1.960784%);fill-opacity:1;" d="M 570 115 L 570 118 C 570 116.34375 571.34375 115 573 115 L 597 115 C 598.65625 115 600 116.34375 600 118 L 600 142 C 600 143.65625 598.65625 145 597 145 L 573 145 C 571.34375 145 570 143.65625 570 142 Z M 570 115 "/>
<path style=" stroke:none;fill-rule:nonzero;fill:rgb(94.901961%,79.607843%,1.960784%);fill-opacity:1;" d="M 605 115 L 605 118 C 605 116.34375 606.34375 115 608 115 L 632 115 C 633.65625 115 635 116.34375 635 118 L 635 142 C 635 143.65625 633.65625 145 632 145 L 608 145 C 606.34375 145 605 143.65625 605 142 Z M 605 115 "/>
<path style=" stroke:none;fill-rule:nonzero;fill:rgb(94.901961%,79.607843%,1.960784%);fill-opacity:1;" d="M 675 115 L 675 118 C 675 116.34375 676.34375 115 678 115 L 702 115 C 703.65625 115 705 116.34375 705 118 L 705 142 C 705 143.65625 703.65625 145 702 145 L 678 145 C 676.34375 145 675 143.65625 675 142 Z M 675 115 "/>
<path style=" stroke:none;fill-rule:nonzero;fill:rgb(94.901961%,79.607843%,1.960784%);fill-opacity:1;" d="M 710 115 L 710 118 C 710 116.34375 711.34375 115 713 115 L 737 115 C 738.65625 115 740 116.34375 740 118 L 740 142 C 740 143.65625 738.65625 145 737 145 L 713 145 C 711.34375 145 710 143.65625 710 142 Z M 710 115 "/>
<path style=" stroke:none;fill-rule:nonzero;fill:rgb(94.901961%,79.607843%,1.960784%);fill-opacity:1;" d="M 745 115 L 745 118 C 745 116.34375 746.34375 115 748 115 L 772 115 C 773.65625 115 775 116.34375 775 118 L 775 142 C 775 143.65625 773.65625 145 772 145 L 748 145 C 746.34375 145 745 143.65625 745 142 Z M 745 115 "/>
<path style=" stroke:none;fill-rule:nonzero;fill:rgb(94.901961%,79.607843%,1.960784%);fill-opacity:1;" d="M 780 115 L 780 118 C 780 116.34375 781.34375 115 783 115 L 807 115 C 808.65625 115 810 116.34375 810 118 L 810 142 C 810 143.65625 808.65625 145 807 145 L 783 145 C 781.34375 145 780 143.65625 780 142 Z M 780 115 "/>
<path style=" stroke:none;fill-rule:nonzero;fill:rgb(94.901961%,79.607843%,1.960784%);fill-opacity:1;" d="M 815 115 L 815 118 C 815 116.34375 816.34375 115 818 115 L 842 115 C 843.65625 115 845 116.34375 845 118 L 845 142 C 845 143.65625 843.65625 145 842 145 L 818 145 C 816.34375 145 815 143.65625 815 142 Z M 815 115 "/>
<path style=" stroke:none;fill-rule:nonzero;fill:rgb(94.901961%,79.607843%,1.960784%);fill-opacity:1;" d="M 920 115 L 920 118 C 920 116.34375 921.34375 115 923 115 L 947 115 C 948.65625 115 950 116.34375 950 118 L 950 142 C 950 143.65625 948.65625 145 947 145 L 923 145 C 921.34375 145 920 143.65625 920 142 Z M 920 115 "/>
<path style=" stroke:none;fill-rule:nonzero;fill:rgb(94.901961%,79.607843%,1.960784%);fill-opacity:1;" d="M 955 115 L 955 118 C 955 116.34375 956.34375 115 958 115 L 982 115 C 983.65625 115 985 116.34375 985 118 L 985 142 C 985 143.65625 983.65625 145 982 145 L 958 145 C 956.34375 145 955 143.65625 955 142 Z M 955 115 "/>
<path style=" stroke:none;fill-rule:nonzero;fill:rgb(94.901961%,79.607843%,1.960784%);fill-opacity:1;" d="M 1025 115 L 1025 118 C 1025 116.34375 1026.34375 115 1028 115 L 1052 115 C 1053.65625 115 1055 116.34375 1055 118 L 1055 142 C 1055 143.65625 1053.65625 145 1052 145 L 1028 145 C 1026.34375 145 1025 143.65625 1025 142 Z M 1025 115 "/>
<path style=" stroke:none;fill-rule:nonzero;fill:rgb(94.901961%,79.607843%,1.960784%);fill-opacity:1;" d="M 1060 115 L 1060 118 C 1060 116.34375 1061.34375 115 1063 115 L 1087 115 C 1088.65625 115 1090 116.34375 1090 118 L 1090 142 C 1090 143.65625 1088.65625 145 1087 145 L 1063 145 C 1061.34375 145 1060 143.65625 1060 142 Z M 1060 115 "/>
<path style=" stroke:none;fill-rule:nonzero;fill:rgb(1.568627%,74.901961%,74.901961%);fill-opacity:1;" d="M 10 150 L 10 153 C 10 151.34375 11.34375 150 13 150 L 37 150 C 38.65625 150 40 151.34375 40 153 L 40 177 C 40 178.65625 38.65625 180 37 180 L 13 180 C 11.34375 180 10 178.65625 10 177 Z M 10 150 "/>
<path style=" stroke:none;fill-rule:nonzero;fill:rgb(1.568627%,74.901961%,74.901961%);fill-opacity:1;" d="M 45 150 L 45 153 C 45 151.34375 46.34375 150 48 150 L 72 150 C 73.65625 150 75 151.34375 75 153 L 75 177 C 75 178.65625 73.65625 180 72 180 L 48 180 C 46.34375 180 45 178.65625 45 177 Z M 45 150 "/>
<path style=" stroke:none;fill-rule:nonzero;fill:rgb(1.568627%,74.901961%,74.901961%);fill-opacity:1;" d="M 115 150 L 115 153 C 115 151.34375 116.34375 150 118 150 L 142 150 C 143.65625 150 145 151.34375 145 153 L 145 177 C 145 178.65625 143.65625 180 142 180 L 118 180 C 116.34375 180 115 178.65625 115 177 Z M 115 150 "/>
<path style=" stroke:none;fill-rule:nonzero;fill:rgb(1.568627%,74.901961%,74.901961%);fill-opacity:1;" d="M 150 150 L 150 153 C 150 151.34375 151.34375 150 153 150 L 177 150 C 178.65625 150 180 151.34375 180 153 L 180 177 C 180 178.65625 178.65625 180 177 180 L 153 180 C 151.34375 180 150 178.65625 150 177 Z M 150 150 "/>
<path style=" stroke:none;fill-rule:nonzero;fill:rgb(1.568627%,74.901961%,74.901961%);fill-opacity:1;" d="M 185 150 L 185 153 C 185 151.34375 186.34375 150 188 150 L 212 150 C 213.65625 150 215 151.34375 215 153 L 215 177 C 215 178.65625 213.65625 180 212 180 L 188 180 C 186.34375 180 185 178.65625 185 177 Z M 185 150 "/>
<path style=" stroke:none;fill-rule:nonzero;fill:rgb(1.568627%,74.901961%,74.901961%);fill-opacity:1;" d="M 255 150 L 255 153 C 255 151.34375 256.34375 150 258 150 L 282 150 C 283.65625 150 285 151.34375 285 153 L 285 177 C 285 178.65625 283.65625 180 282 180 L 258 180 C 256.34375 180 255 178.65625 255 177 Z M 255 150 "/>
<path style=" stroke:none;fill-rule:nonzero;fill:rgb(1.568627%,74.901961%,74.901961%);fill-opacity:1;" d="M 290 150 L 290 153 C 290 151.34375 291.34375 150 293 150 L 317 150 C 318.65625 150 320 151.34375 320 153 L 320 177 C 320 178.65625 318.65625 180 317 180 L 293 180 C 291.34375 180 290 178.65625 290 177 Z M 290 150 "/>
<path style=" stroke:none;fill-rule:nonzero;fill:rgb(1.568627%,74.901961%,74.901961%);fill-opacity:1;" d="M 360 150 L 360 153 C 360 151.34375 361.34375 150 363 150 L 387 150 C 388.65625 150 390 151.34375 390 153 L 390 177 C 390 178.65625 388.65625 180 387 180 L 363 180 C 361.34375 180 360 178.65625 360 177 Z M 360 150 "/>
<path style=" stroke:none;fill-rule:nonzero;fill:rgb(1.568627%,74.901961%,74.901961%);fill-opacity:1;" d="M 395 150 L 395 153 C 395 151.34375 396.34375 150 398 150 L 422 150 C 423.65625 150 425 151.34375 425 153 L 425 177 C 425 178.65625 423.65625 180 422 180 L 398 180 C 396.34375 180 395 178.65625 395 177 Z M 395 150 "/>
<path style=" stroke:none;fill-rule:nonzero;fill:rgb(1.568627%,74.901961%,74.901961%);fill-opacity:1;" d="M 570 150 L 570 153 C 570 151.34375 571.34375 150 573 150 L 597 150 C 598.65625 150 600 151.34375 600 153 L 600 177 C 600 178.65625 598.65625 180 597 180 L 573 180 C 571.34375 180 570 178.65625 570 177 Z M 570 150 "/>
<path style=" stroke:none;fill-rule:nonzero;fill:rgb(1.568627%,74.901961%,74.901961%);fill-opacity:1;" d="M 605 150 L 605 153 C 605 151.34375 606.34375 150 608 150 L 632 150 C 633.65625 150 635 151.34375 635 153 L 635 177 C 635 178.65625 633.65625 180 632 180 L 608 180 C 606.34375 180 605 178.65625 605 177 Z M 605 150 "/>
<path style=" stroke:none;fill-rule:nonzero;fill:rgb(1.568627%,74.901961%,74.901961%);fill-opacity:1;" d="M 710 150 L 710 153 C 710 151.34375 711.34375 150 713 150 L 737 150 C 738.65625 150 740 151.34375 740 153 L 740 177 C 740 178.65625 738.65625 180 737 180 L 713 180 C 711.34375 180 710 178.65625 710 177 Z M 710 150 "/>
<path style=" stroke:none;fill-rule:nonzero;fill:rgb(1.568627%,74.901961%,74.901961%);fill-opacity:1;" d="M 745 150 L 745 153 C 745 151.34375 746.34375 150 748 150 L 772 150 C 773.65625 150 775 151.34375 775 153 L 775 177 C 775 178.65625 773.65625 180 772 180 L 748 180 C 746.34375 180 745 178.65625 745 177 Z M 745 150 "/>
<path style=" stroke:none;fill-rule:nonzero;fill:rgb(1.568627%,74.901961%,74.901961%);fill-opacity:1;" d="M 780 150 L 780 153 C 780 151.34375 781.34375 150 783 150 L 807 150 C 808.65625 150 810 151.34375 810 153 L 810 177 C 810 178.65625 808.65625 180 807 180 L 783 180 C 781.34375 180 780 178.65625 780 177 Z M 780 150 "/>
<path style=" stroke:none;fill-rule:nonzero;fill:rgb(1.568627%,74.901961%,74.901961%);fill-opacity:1;" d="M 815 150 L 815 153 C 815 151.34375 816.34375 150 818 150 L 842 150 C 843.65625 150 845 151.34375 845 153 L 845 177 C 845 178.65625 843.65625 180 842 180 L 818 180 C 816.34375 180 815 178.65625 815 177 Z M 815 150 "/>
<path style=" stroke:none;fill-rule:nonzero;fill:rgb(1.568627%,74.901961%,74.901961%);fill-opacity:1;" d="M 850 150 L 850 153 C 850 151.34375 851.34375 150 853 150 L 877 150 C 878.65625 150 880 151.34375 880 153 L 880 177 C 880 178.65625 878.65625 180 877 180 L 853 180 C 851.34375 180 850 178.65625 850 177 Z M 850 150 "/>
<path style=" stroke:none;fill-rule:nonzero;fill:rgb(1.568627%,74.901961%,74.901961%);fill-opacity:1;" d="M 920 150 L 920 153 C 920 151.34375 921.34375 150 923 150 L 947 150 C 948.65625 150 950 151.34375 950 153 L 950 177 C 950 178.65625 948.65625 180 947 180 L 923 180 C 921.34375 180 920 178.65625 920 177 Z M 920 150 "/>
<path style=" stroke:none;fill-rule:nonzero;fill:rgb(1.568627%,74.901961%,74.901961%);fill-opacity:1;" d="M 955 150 L 955 153 C 955 151.34375 956.34375 150 958 150 L 982 150 C 983.65625 150 985 151.34375 985 153 L 985 177 C 985 178.65625 983.65625 180 982 180 L 958 180 C 956.34375 180 955 178.65625 955 177 Z M 955 150 "/>
<path style=" stroke:none;fill-rule:nonzero;fill:rgb(1.568627%,74.901961%,74.901961%);fill-opacity:1;" d="M 1025 150 L 1025 153 C 1025 151.34375 1026.34375 150 1028 150 L 1052 150 C 1053.65625 150 1055 151.34375 1055 153 L 1055 177 C 1055 178.65625 1053.65625 180 1052 180 L 1028 180 C 1026.34375 180 1025 178.65625 1025 177 Z M 1025 150 "/>
<path style=" stroke:none;fill-rule:nonzero;fill:rgb(1.568627%,74.901961%,74.901961%);fill-opacity:1;" d="M 1060 150 L 1060 153 C 1060 151.34375 1061.34375 150 1063 150 L 1087 150 C 1088.65625 150 1090 151.34375 1090 153 L 1090 177 C 1090 178.65625 1088.65625 180 1087 180 L 1063 180 C 1061.34375 180 1060 178.65625 1060 177 Z M 1060 150 "/>
<path style=" stroke:none;fill-rule:nonzero;fill:rgb(1.568627%,74.901961%,74.901961%);fill-opacity:1;" d="M 10 185 L 10 188 C 10 186.34375 11.34375 185 13 185 L 37 185 C 38.65625 185 40 186.34375 40 188 L 40 212 C 40 213.65625 38.65625 215 37 215 L 13 215 C 11.34375 215 10 213.65625 10 212 Z M 10 185 "/>
<path style=" stroke:none;fill-rule:nonzero;fill:rgb(1.568627%,74.901961%,74.901961%);fill-opacity:1;" d="M 45 185 L 45 188 C 45 186.34375 46.34375 185 48 185 L 72 185 C 73.65625 185 75 186.34375 75 188 L 75 212 C 75 213.65625 73.65625 215 72 215 L 48 215 C 46.34375 215 45 213.65625 45 212 Z M 45 185 "/>
<path style=" stroke:none;fill-rule:nonzero;fill:rgb(1.568627%,74.901961%,74.901961%);fill-opacity:1;" d="M 150 185 L 150 188 C 150 186.34375 151.34375 185 153 185 L 177 185 C 178.65625 185 180 186.34375 180 188 L 180 212 C 180 213.65625 178.65625 215 177 215 L 153 215 C 151.34375 215 150 213.65625 150 212 Z M 150 185 "/>
<path style=" stroke:none;fill-rule:nonzero;fill:rgb(1.568627%,74.901961%,74.901961%);fill-opacity:1;" d="M 255 185 L 255 188 C 255 186.34375 256.34375 185 258 185 L 282 185 C 283.65625 185 285 186.34375 285 188 L 285 212 C 285 213.65625 283.65625 215 282 215 L 258 215 C 256.34375 215 255 213.65625 255 212 Z M 255 185 "/>
<path style=" stroke:none;fill-rule:nonzero;fill:rgb(1.568627%,74.901961%,74.901961%);fill-opacity:1;" d="M 290 185 L 290 188 C 290 186.34375 291.34375 185 293 185 L 317 185 C 318.65625 185 320 186.34375 320 188 L 320 212 C 320 213.65625 318.65625 215 317 215 L 293 215 C 291.34375 215 290 213.65625 290 212 Z M 290 185 "/>
<path style=" stroke:none;fill-rule:nonzero;fill:rgb(1.568627%,74.901961%,74.901961%);fill-opacity:1;" d="M 360 185 L 360 188 C 360 186.34375 361.34375 185 363 185 L 387 185 C 388.65625 185 390 186.34375 390 188 L 390 212 C 390 213.65625 388.65625 215 387 215 L 363 215 C 361.34375 215 360 213.65625 360 212 Z M 360 185 "/>
<path style=" stroke:none;fill-rule:nonzero;fill:rgb(1.568627%,74.901961%,74.901961%);fill-opacity:1;" d="M 395 185 L 395 188 C 395 186.34375 396.34375 185 398 185 L 422 185 C 423.65625 185 425 186.34375 425 188 L 425 212 C 425 213.65625 423.65625 215 422 215 L 398 215 C 396.34375 215 395 213.65625 395 212 Z M 395 185 "/>
<path style=" stroke:none;fill-rule:nonzero;fill:rgb(1.568627%,74.901961%,74.901961%);fill-opacity:1;" d="M 430 185 L 430 188 C 430 186.34375 431.34375 185 433 185 L 457 185 C 458.65625 185 460 186.34375 460 188 L 460 212 C 460 213.65625 458.65625 215 457 215 L 433 215 C 431.34375 215 430 213.65625 430 212 Z M 430 185 "/>
<path style=" stroke:none;fill-rule:nonzero;fill:rgb(1.568627%,74.901961%,74.901961%);fill-opacity:1;" d="M 465 185 L 465 188 C 465 186.34375 466.34375 185 468 185 L 492 185 C 493.65625 185 495 186.34375 495 188 L 495 212 C 495 213.65625 493.65625 215 492 215 L 468 215 C 466.34375 215 465 213.65625 465 212 Z M 465 185 "/>
<path style=" stroke:none;fill-rule:nonzero;fill:rgb(1.568627%,74.901961%,74.901961%);fill-opacity:1;" d="M 500 185 L 500 188 C 500 186.34375 501.34375 185 503 185 L 527 185 C 528.65625 185 530 186.34375 530 188 L 530 212 C 530 213.65625 528.65625 215 527 215 L 503 215 C 501.34375 215 500 213.65625 500 212 Z M 500 185 "/>
<path style=" stroke:none;fill-rule:nonzero;fill:rgb(1.568627%,74.901961%,74.901961%);fill-opacity:1;" d="M 535 185 L 535 188 C 535 186.34375 536.34375 185 538 185 L 562 185 C 563.65625 185 565 186.34375 565 188 L 565 212 C 565 213.65625 563.65625 215 562 215 L 538 215 C 536.34375 215 535 213.65625 535 212 Z M 535 185 "/>
<path style=" stroke:none;fill-rule:nonzero;fill:rgb(1.568627%,74.901961%,74.901961%);fill-opacity:1;" d="M 570 185 L 570 188 C 570 186.34375 571.34375 185 573 185 L 597 185 C 598.65625 185 600 186.34375 600 188 L 600 212 C 600 213.65625 598.65625 215 597 215 L 573 215 C 571.34375 215 570 213.65625 570 212 Z M 570 185 "/>
<path style=" stroke:none;fill-rule:nonzero;fill:rgb(1.568627%,74.901961%,74.901961%);fill-opacity:1;" d="M 605 185 L 605 188 C 605 186.34375 606.34375 185 608 185 L 632 185 C 633.65625 185 635 186.34375 635 188 L 635 212 C 635 213.65625 633.65625 215 632 215 L 608 215 C 606.34375 215 605 213.65625 605 212 Z M 605 185 "/>
<path style=" stroke:none;fill-rule:nonzero;fill:rgb(1.568627%,74.901961%,74.901961%);fill-opacity:1;" d="M 815 185 L 815 188 C 815 186.34375 816.34375 185 818 185 L 842 185 C 843.65625 185 845 186.34375 845 188 L 845 212 C 845 213.65625 843.65625 215 842 215 L 818 215 C 816.34375 215 815 213.65625 815 212 Z M 815 185 "/>
<path style=" stroke:none;fill-rule:nonzero;fill:rgb(1.568627%,74.901961%,74.901961%);fill-opacity:1;" d="M 850 185 L 850 188 C 850 186.34375 851.34375 185 853 185 L 877 185 C 878.65625 185 880 186.34375 880 188 L 880 212 C 880 213.65625 878.65625 215 877 215 L 853 215 C 851.34375 215 850 213.65625 850 212 Z M 850 185 "/>
<path style=" stroke:none;fill-rule:nonzero;fill:rgb(1.568627%,74.901961%,74.901961%);fill-opacity:1;" d="M 920 185 L 920 188 C 920 186.34375 921.34375 185 923 185 L 947 185 C 948.65625 185 950 186.34375 950 188 L 950 212 C 950 213.65625 948.65625 215 947 215 L 923 215 C 921.34375 215 920 213.65625 920 212 Z M 920 185 "/>
<path style=" stroke:none;fill-rule:nonzero;fill:rgb(1.568627%,74.901961%,74.901961%);fill-opacity:1;" d="M 955 185 L 955 188 C 955 186.34375 956.34375 185 958 185 L 982 185 C 983.65625 185 985 186.34375 985 188 L 985 212 C 985 213.65625 983.65625 215 982 215 L 958 215 C 956.34375 215 955 213.65625 955 212 Z M 955 185 "/>
<path style=" stroke:none;fill-rule:nonzero;fill:rgb(1.568627%,74.901961%,74.901961%);fill-opacity:1;" d="M 1025 185 L 1025 188 C 1025 186.34375 1026.34375 185 1028 185 L 1052 185 C 1053.65625 185 1055 186.34375 1055 188 L 1055 212 C 1055 213.65625 1053.65625 215 1052 215 L 1028 215 C 1026.34375 215 1025 213.65625 1025 212 Z M 1025 185 "/>
<path style=" stroke:none;fill-rule:nonzero;fill:rgb(1.568627%,74.901961%,74.901961%);fill-opacity:1;" d="M 1060 185 L 1060 188 C 1060 186.34375 1061.34375 185 1063 185 L 1087 185 C 1088.65625 185 1090 186.34375 1090 188 L 1090 212 C 1090 213.65625 1088.65625 215 1087 215 L 1063 215 C 1061.34375 215 1060 213.65625 1060 212 Z M 1060 185 "/>
<path style=" stroke:none;fill-rule:nonzero;fill:rgb(0.784314%,40.784314%,45.098039%);fill-opacity:1;" d="M 10 220 L 10 223 C 10 221.34375 11.34375 220 13 220 L 37 220 C 38.65625 220 40 221.34375 40 223 L 40 247 C 40 248.65625 38.65625 250 37 250 L 13 250 C 11.34375 250 10 248.65625 10 247 Z M 10 220 "/>
<path style=" stroke:none;fill-rule:nonzero;fill:rgb(0.784314%,40.784314%,45.098039%);fill-opacity:1;" d="M 45 220 L 45 223 C 45 221.34375 46.34375 220 48 220 L 72 220 C 73.65625 220 75 221.34375 75 223 L 75 247 C 75 248.65625 73.65625 250 72 250 L 48 250 C 46.34375 250 45 248.65625 45 247 Z M 45 220 "/>
<path style=" stroke:none;fill-rule:nonzero;fill:rgb(0.784314%,40.784314%,45.098039%);fill-opacity:1;" d="M 255 220 L 255 223 C 255 221.34375 256.34375 220 258 220 L 282 220 C 283.65625 220 285 221.34375 285 223 L 285 247 C 285 248.65625 283.65625 250 282 250 L 258 250 C 256.34375 250 255 248.65625 255 247 Z M 255 220 "/>
<path style=" stroke:none;fill-rule:nonzero;fill:rgb(0.784314%,40.784314%,45.098039%);fill-opacity:1;" d="M 290 220 L 290 223 C 290 221.34375 291.34375 220 293 220 L 317 220 C 318.65625 220 320 221.34375 320 223 L 320 247 C 320 248.65625 318.65625 250 317 250 L 293 250 C 291.34375 250 290 248.65625 290 247 Z M 290 220 "/>
<path style=" stroke:none;fill-rule:nonzero;fill:rgb(0.784314%,40.784314%,45.098039%);fill-opacity:1;" d="M 360 220 L 360 223 C 360 221.34375 361.34375 220 363 220 L 387 220 C 388.65625 220 390 221.34375 390 223 L 390 247 C 390 248.65625 388.65625 250 387 250 L 363 250 C 361.34375 250 360 248.65625 360 247 Z M 360 220 "/>
<path style=" stroke:none;fill-rule:nonzero;fill:rgb(0.784314%,40.784314%,45.098039%);fill-opacity:1;" d="M 395 220 L 395 223 C 395 221.34375 396.34375 220 398 220 L 422 220 C 423.65625 220 425 221.34375 425 223 L 425 247 C 425 248.65625 423.65625 250 422 250 L 398 250 C 396.34375 250 395 248.65625 395 247 Z M 395 220 "/>
<path style=" stroke:none;fill-rule:nonzero;fill:rgb(0.784314%,40.784314%,45.098039%);fill-opacity:1;" d="M 430 220 L 430 223 C 430 221.34375 431.34375 220 433 220 L 457 220 C 458.65625 220 460 221.34375 460 223 L 460 247 C 460 248.65625 458.65625 250 457 250 L 433 250 C 431.34375 250 430 248.65625 430 247 Z M 430 220 "/>
<path style=" stroke:none;fill-rule:nonzero;fill:rgb(0.784314%,40.784314%,45.098039%);fill-opacity:1;" d="M 465 220 L 465 223 C 465 221.34375 466.34375 220 468 220 L 492 220 C 493.65625 220 495 221.34375 495 223 L 495 247 C 495 248.65625 493.65625 250 492 250 L 468 250 C 466.34375 250 465 248.65625 465 247 Z M 465 220 "/>
<path style=" stroke:none;fill-rule:nonzero;fill:rgb(0.784314%,40.784314%,45.098039%);fill-opacity:1;" d="M 500 220 L 500 223 C 500 221.34375 501.34375 220 503 220 L 527 220 C 528.65625 220 530 221.34375 530 223 L 530 247 C 530 248.65625 528.65625 250 527 250 L 503 250 C 501.34375 250 500 248.65625 500 247 Z M 500 220 "/>
<path style=" stroke:none;fill-rule:nonzero;fill:rgb(0.784314%,40.784314%,45.098039%);fill-opacity:1;" d="M 535 220 L 535 223 C 535 221.34375 536.34375 220 538 220 L 562 220 C 563.65625 220 565 221.34375 565 223 L 565 247 C 565 248.65625 563.65625 250 562 250 L 538 250 C 536.34375 250 535 248.65625 535 247 Z M 535 220 "/>
<path style=" stroke:none;fill-rule:nonzero;fill:rgb(0.784314%,40.784314%,45.098039%);fill-opacity:1;" d="M 570 220 L 570 223 C 570 221.34375 571.34375 220 573 220 L 597 220 C 598.65625 220 600 221.34375 600 223 L 600 247 C 600 248.65625 598.65625 250 597 250 L 573 250 C 571.34375 250 570 248.65625 570 247 Z M 570 220 "/>
<path style=" stroke:none;fill-rule:nonzero;fill:rgb(0.784314%,40.784314%,45.098039%);fill-opacity:1;" d="M 605 220 L 605 223 C 605 221.34375 606.34375 220 608 220 L 632 220 C 633.65625 220 635 221.34375 635 223 L 635 247 C 635 248.65625 633.65625 250 632 250 L 608 250 C 606.34375 250 605 248.65625 605 247 Z M 605 220 "/>
<path style=" stroke:none;fill-rule:nonzero;fill:rgb(0.784314%,40.784314%,45.098039%);fill-opacity:1;" d="M 675 220 L 675 223 C 675 221.34375 676.34375 220 678 220 L 702 220 C 703.65625 220 705 221.34375 705 223 L 705 247 C 705 248.65625 703.65625 250 702 250 L 678 250 C 676.34375 250 675 248.65625 675 247 Z M 675 220 "/>
<path style=" stroke:none;fill-rule:nonzero;fill:rgb(0.784314%,40.784314%,45.098039%);fill-opacity:1;" d="M 710 220 L 710 223 C 710 221.34375 711.34375 220 713 220 L 737 220 C 738.65625 220 740 221.34375 740 223 L 740 247 C 740 248.65625 738.65625 250 737 250 L 713 250 C 711.34375 250 710 248.65625 710 247 Z M 710 220 "/>
<path style=" stroke:none;fill-rule:nonzero;fill:rgb(0.784314%,40.784314%,45.098039%);fill-opacity:1;" d="M 745 220 L 745 223 C 745 221.34375 746.34375 220 748 220 L 772 220 C 773.65625 220 775 221.34375 775 223 L 775 247 C 775 248.65625 773.65625 250 772 250 L 748 250 C 746.34375 250 745 248.65625 745 247 Z M 745 220 "/>
<path style=" stroke:none;fill-rule:nonzero;fill:rgb(0.784314%,40.784314%,45.098039%);fill-opacity:1;" d="M 780 220 L 780 223 C 780 221.34375 781.34375 220 783 220 L 807 220 C 808.65625 220 810 221.34375 810 223 L 810 247 C 810 248.65625 808.65625 250 807 250 L 783 250 C 781.34375 250 780 248.65625 780 247 Z M 780 220 "/>
<path style=" stroke:none;fill-rule:nonzero;fill:rgb(0.784314%,40.784314%,45.098039%);fill-opacity:1;" d="M 815 220 L 815 223 C 815 221.34375 816.34375 220 818 220 L 842 220 C 843.65625 220 845 221.34375 845 223 L 845 247 C 845 248.65625 843.65625 250 842 250 L 818 250 C 816.34375 250 815 248.65625 815 247 Z M 815 220 "/>
<path style=" stroke:none;fill-rule:nonzero;fill:rgb(0.784314%,40.784314%,45.098039%);fill-opacity:1;" d="M 850 220 L 850 223 C 850 221.34375 851.34375 220 853 220 L 877 220 C 878.65625 220 880 221.34375 880 223 L 880 247 C 880 248.65625 878.65625 250 877 250 L 853 250 C 851.34375 250 850 248.65625 850 247 Z M 850 220 "/>
<path style=" stroke:none;fill-rule:nonzero;fill:rgb(0.784314%,40.784314%,45.098039%);fill-opacity:1;" d="M 920 220 L 920 223 C 920 221.34375 921.34375 220 923 220 L 947 220 C 948.65625 220 950 221.34375 950 223 L 950 247 C 950 248.65625 948.65625 250 947 250 L 923 250 C 921.34375 250 920 248.65625 920 247 Z M 920 220 "/>
<path style=" stroke:none;fill-rule:nonzero;fill:rgb(0.784314%,40.784314%,45.098039%);fill-opacity:1;" d="M 955 220 L 955 223 C 955 221.34375 956.34375 220 958 220 L 982 220 C 983.65625 220 985 221.34375 985 223 L 985 247 C 985 248.65625 983.65625 250 982 250 L 958 250 C 956.34375 250 955 248.65625 955 247 Z M 955 220 "/>
<path style=" stroke:none;fill-rule:nonzero;fill:rgb(0.784314%,40.784314%,45.098039%);fill-opacity:1;" d="M 1025 220 L 1025 223 C 1025 221.34375 1026.34375 220 1028 220 L 1052 220 C 1053.65625 220 1055 221.34375 1055 223 L 1055 247 C 1055 248.65625 1053.65625 250 1052 250 L 1028 250 C 1026.34375 250 1025 248.65625 1025 247 Z M 1025 220 "/>
<path style=" stroke:none;fill-rule:nonzero;fill:rgb(0.784314%,40.784314%,45.098039%);fill-opacity:1;" d="M 1060 220 L 1060 223 C 1060 221.34375 1061.34375 220 1063 220 L 1087 220 C 1088.65625 220 1090 221.34375 1090 223 L 1090 247 C 1090 248.65625 1088.65625 250 1087 250 L 1063 250 C 1061.34375 250 1060 248.65625 1060 247 Z M 1060 220 "/>
<path style=" stroke:none;fill-rule:nonzero;fill:rgb(0.784314%,40.784314%,45.098039%);fill-opacity:1;" d="M 1095 220 L 1095 223 C 1095 221.34375 1096.34375 220 1098 220 L 1122 220 C 1123.65625 220 1125 221.34375 1125 223 L 1125 247 C 1125 248.65625 1123.65625 250 1122 250 L 1098 250 C 1096.34375 250 1095 248.65625 1095 247 Z M 1095 220 "/>
<path style=" stroke:none;fill-rule:nonzero;fill:rgb(0.784314%,40.784314%,45.098039%);fill-opacity:1;" d="M 1130 220 L 1130 223 C 1130 221.34375 1131.34375 220 1133 220 L 1157 220 C 1158.65625 220 1160 221.34375 1160 223 L 1160 247 C 1160 248.65625 1158.65625 250 1157 250 L 1133 250 C 1131.34375 250 1130 248.65625 1130 247 Z M 1130 220 "/>
<path style=" stroke:none;fill-rule:nonzero;fill:rgb(0.784314%,40.784314%,45.098039%);fill-opacity:1;" d="M 1165 220 L 1165 223 C 1165 221.34375 1166.34375 220 1168 220 L 1192 220 C 1193.65625 220 1195 221.34375 1195 223 L 1195 247 C 1195 248.65625 1193.65625 250 1192 250 L 1168 250 C 1166.34375 250 1165 248.65625 1165 247 Z M 1165 220 "/>
<path style=" stroke:none;fill-rule:nonzero;fill:rgb(9.019608%,21.960784%,25.098039%);fill-opacity:1;" d="M 10 255 L 10 258 C 10 256.34375 11.34375 255 13 255 L 37 255 C 38.65625 255 40 256.34375 40 258 L 40 282 C 40 283.65625 38.65625 285 37 285 L 13 285 C 11.34375 285 10 283.65625 10 282 Z M 10 255 "/>
<path style=" stroke:none;fill-rule:nonzero;fill:rgb(9.019608%,21.960784%,25.098039%);fill-opacity:1;" d="M 45 255 L 45 258 C 45 256.34375 46.34375 255 48 255 L 72 255 C 73.65625 255 75 256.34375 75 258 L 75 282 C 75 283.65625 73.65625 285 72 285 L 48 285 C 46.34375 285 45 283.65625 45 282 Z M 45 255 "/>
<path style=" stroke:none;fill-rule:nonzero;fill:rgb(9.019608%,21.960784%,25.098039%);fill-opacity:1;" d="M 255 255 L 255 258 C 255 256.34375 256.34375 255 258 255 L 282 255 C 283.65625 255 285 256.34375 285 258 L 285 282 C 285 283.65625 283.65625 285 282 285 L 258 285 C 256.34375 285 255 283.65625 255 282 Z M 255 255 "/>
<path style=" stroke:none;fill-rule:nonzero;fill:rgb(9.019608%,21.960784%,25.098039%);fill-opacity:1;" d="M 290 255 L 290 258 C 290 256.34375 291.34375 255 293 255 L 317 255 C 318.65625 255 320 256.34375 320 258 L 320 282 C 320 283.65625 318.65625 285 317 285 L 293 285 C 291.34375 285 290 283.65625 290 282 Z M 290 255 "/>
<path style=" stroke:none;fill-rule:nonzero;fill:rgb(9.019608%,21.960784%,25.098039%);fill-opacity:1;" d="M 395 255 L 395 258 C 395 256.34375 396.34375 255 398 255 L 422 255 C 423.65625 255 425 256.34375 425 258 L 425 282 C 425 283.65625 423.65625 285 422 285 L 398 285 C 396.34375 285 395 283.65625 395 282 Z M 395 255 "/>
<path style=" stroke:none;fill-rule:nonzero;fill:rgb(9.019608%,21.960784%,25.098039%);fill-opacity:1;" d="M 430 255 L 430 258 C 430 256.34375 431.34375 255 433 255 L 457 255 C 458.65625 255 460 256.34375 460 258 L 460 282 C 460 283.65625 458.65625 285 457 285 L 433 285 C 431.34375 285 430 283.65625 430 282 Z M 430 255 "/>
<path style=" stroke:none;fill-rule:nonzero;fill:rgb(9.019608%,21.960784%,25.098039%);fill-opacity:1;" d="M 465 255 L 465 258 C 465 256.34375 466.34375 255 468 255 L 492 255 C 493.65625 255 495 256.34375 495 258 L 495 282 C 495 283.65625 493.65625 285 492 285 L 468 285 C 466.34375 285 465 283.65625 465 282 Z M 465 255 "/>
<path style=" stroke:none;fill-rule:nonzero;fill:rgb(9.019608%,21.960784%,25.098039%);fill-opacity:1;" d="M 500 255 L 500 258 C 500 256.34375 501.34375 255 503 255 L 527 255 C 528.65625 255 530 256.34375 530 258 L 530 282 C 530 283.65625 528.65625 285 527 285 L 503 285 C 501.34375 285 500 283.65625 500 282 Z M 500 255 "/>
<path style=" stroke:none;fill-rule:nonzero;fill:rgb(9.019608%,21.960784%,25.098039%);fill-opacity:1;" d="M 535 255 L 535 258 C 535 256.34375 536.34375 255 538 255 L 562 255 C 563.65625 255 565 256.34375 565 258 L 565 282 C 565 283.65625 563.65625 285 562 285 L 538 285 C 536.34375 285 535 283.65625 535 282 Z M 535 255 "/>
<path style=" stroke:none;fill-rule:nonzero;fill:rgb(9.019608%,21.960784%,25.098039%);fill-opacity:1;" d="M 570 255 L 570 258 C 570 256.34375 571.34375 255 573 255 L 597 255 C 598.65625 255 600 256.34375 600 258 L 600 282 C 600 283.65625 598.65625 285 597 285 L 573 285 C 571.34375 285 570 283.65625 570 282 Z M 570 255 "/>
<path style=" stroke:none;fill-rule:nonzero;fill:rgb(9.019608%,21.960784%,25.098039%);fill-opacity:1;" d="M 675 255 L 675 258 C 675 256.34375 676.34375 255 678 255 L 702 255 C 703.65625 255 705 256.34375 705 258 L 705 282 C 705 283.65625 703.65625 285 702 285 L 678 285 C 676.34375 285 675 283.65625 675 282 Z M 675 255 "/>
<path style=" stroke:none;fill-rule:nonzero;fill:rgb(9.019608%,21.960784%,25.098039%);fill-opacity:1;" d="M 710 255 L 710 258 C 710 256.34375 711.34375 255 713 255 L 737 255 C 738.65625 255 740 256.34375 740 258 L 740 282 C 740 283.65625 738.65625 285 737 285 L 713 285 C 711.34375 285 710 283.65625 710 282 Z M 710 255 "/>
<path style=" stroke:none;fill-rule:nonzero;fill:rgb(9.019608%,21.960784%,25.098039%);fill-opacity:1;" d="M 745 255 L 745 258 C 745 256.34375 746.34375 255 748 255 L 772 255 C 773.65625 255 775 256.34375 775 258 L 775 282 C 775 283.65625 773.65625 285 772 285 L 748 285 C 746.34375 285 745 283.65625 745 282 Z M 745 255 "/>
<path style=" stroke:none;fill-rule:nonzero;fill:rgb(9.019608%,21.960784%,25.098039%);fill-opacity:1;" d="M 780 255 L 780 258 C 780 256.34375 781.34375 255 783 255 L 807 255 C 808.65625 255 810 256.34375 810 258 L 810 282 C 810 283.65625 808.65625 285 807 285 L 783 285 C 781.34375 285 780 283.65625 780 282 Z M 780 255 "/>
<path style=" stroke:none;fill-rule:nonzero;fill:rgb(9.019608%,21.960784%,25.098039%);fill-opacity:1;" d="M 815 255 L 815 258 C 815 256.34375 816.34375 255 818 255 L 842 255 C 843.65625 255 845 256.34375 845 258 L 845 282 C 845 283.65625 843.65625 285 842 285 L 818 285 C 816.34375 285 815 283.65625 815 282 Z M 815 255 "/>
<path style=" stroke:none;fill-rule:nonzero;fill:rgb(9.019608%,21.960784%,25.098039%);fill-opacity:1;" d="M 920 255 L 920 258 C 920 256.34375 921.34375 255 923 255 L 947 255 C 948.65625 255 950 256.34375 950 258 L 950 282 C 950 283.65625 948.65625 285 947 285 L 923 285 C 921.34375 285 920 283.65625 920 282 Z M 920 255 "/>
<path style=" stroke:none;fill-rule:nonzero;fill:rgb(9.019608%,21.960784%,25.098039%);fill-opacity:1;" d="M 955 255 L 955 258 C 955 256.34375 956.34375 255 958 255 L 982 255 C 983.65625 255 985 256.34375 985 258 L 985 282 C 985 283.65625 983.65625 285 982 285 L 958 285 C 956.34375 285 955 283.65625 955 282 Z M 955 255 "/>
<path style=" stroke:none;fill-rule:nonzero;fill:rgb(9.019608%,21.960784%,25.098039%);fill-opacity:1;" d="M 1060 255 L 1060 258 C 1060 256.34375 1061.34375 255 1063 255 L 1087 255 C 1088.65625 255 1090 256.34375 1090 258 L 1090 282 C 1090 283.65625 1088.65625 285 1087 285 L 1063 285 C 1061.34375 285 1060 283.65625 1060 282 Z M 1060 255 "/>
<path style=" stroke:none;fill-rule:nonzero;fill:rgb(9.019608%,21.960784%,25.098039%);fill-opacity:1;" d="M 1095 255 L 1095 258 C 1095 256.34375 1096.34375 255 1098 255 L 1122 255 C 1123.65625 255 1125 256.34375 1125 258 L 1125 282 C 1125 283.65625 1123.65625 285 1122 285 L 1098 285 C 1096.34375 285 1095 283.65625 1095 282 Z M 1095 255 "/>
<path style=" stroke:none;fill-rule:nonzero;fill:rgb(9.019608%,21.960784%,25.098039%);fill-opacity:1;" d="M 1130 255 L 1130 258 C 1130 256.34375 1131.34375 255 1133 255 L 1157 255 C 1158.65625 255 1160 256.34375 1160 258 L 1160 282 C 1160 283.65625 1158.65625 285 1157 285 L 1133 285 C 1131.34375 285 1130 283.65625 1130 282 Z M 1130 255 "/>
<path style=" stroke:none;fill-rule:nonzero;fill:rgb(9.019608%,21.960784%,25.098039%);fill-opacity:1;" d="M 1165 255 L 1165 258 C 1165 256.34375 1166.34375 255 1168 255 L 1192 255 C 1193.65625 255 1195 256.34375 1195 258 L 1195 282 C 1195 283.65625 1193.65625 285 1192 285 L 1168 285 C 1166.34375 285 1165 283.65625 1165 282 Z M 1165 255 "/>
</g>
</svg>
